<svg width="18" height="18" viewBox="0 0 18 18" fill="none" xmlns="http://www.w3.org/2000/svg">
<path d="M16.6099 11.6175L12.5614 9.80334L12.5502 9.79819C12.3401 9.70829 12.1108 9.67222 11.8832 9.69322C11.6555 9.71423 11.4367 9.79166 11.2466 9.9185C11.2242 9.93329 11.2027 9.94936 11.1821 9.96662L9.0904 11.7498C7.76524 11.1062 6.39712 9.74834 5.75345 8.44037L7.53923 6.31686C7.55641 6.29537 7.57274 6.27389 7.58821 6.25069C7.71233 6.06102 7.78763 5.84362 7.80743 5.61782C7.82722 5.39202 7.79088 5.16483 7.70165 4.95647V4.94615L5.88235 0.890763C5.76439 0.618569 5.56157 0.391823 5.30415 0.244375C5.04674 0.0969262 4.74854 0.0366831 4.45407 0.0726386C3.28959 0.225871 2.22071 0.797752 1.44706 1.68147C0.673411 2.56519 0.247902 3.70031 0.250008 4.87483C0.250008 11.6983 5.80157 17.2498 12.625 17.2498C13.7995 17.2519 14.9346 16.8264 15.8184 16.0528C16.7021 15.2791 17.274 14.2102 17.4272 13.0458C17.4632 12.7514 17.4031 12.4533 17.2558 12.1959C17.1085 11.9385 16.882 11.7356 16.6099 11.6175ZM12.625 15.8748C9.7086 15.8716 6.91256 14.7117 4.85035 12.6495C2.78814 10.5873 1.62819 7.79123 1.62501 4.87483C1.62177 4.03564 1.92411 3.22396 2.47556 2.59139C3.02701 1.95881 3.78986 1.54859 4.62165 1.43733C4.62131 1.44076 4.62131 1.44421 4.62165 1.44764L6.42634 5.4867L4.65001 7.61279C4.63198 7.63354 4.6156 7.65567 4.60102 7.67897C4.4717 7.87741 4.39583 8.1059 4.38078 8.34229C4.36572 8.57867 4.41199 8.81494 4.51509 9.02819C5.29368 10.6206 6.89813 12.213 8.50774 12.9908C8.72256 13.0929 8.96019 13.1376 9.19743 13.1204C9.43467 13.1032 9.66339 13.0248 9.86126 12.8928C9.88332 12.8779 9.90455 12.8619 9.92485 12.8447L12.014 11.0623L16.0531 12.8713H16.0625C15.9526 13.7043 15.543 14.4687 14.9103 15.0215C14.2776 15.5743 13.4652 15.8777 12.625 15.8748Z" fill="#FEEA1E"/>
</svg>
