<svg width="143" height="59" viewBox="0 0 143 59" fill="none" xmlns="http://www.w3.org/2000/svg">
<path d="M25.374 23.1337H25.4583L25.3037 23.0923L25.374 23.1337Z" fill="#0C0C0C"/>
<path d="M34.7928 7.40475C34.1027 7.40064 33.4271 7.21044 32.8396 6.85489C32.2521 6.49935 31.7752 5.99212 31.4611 5.38855C29.9148 3.16522 29.254 2.47474 28.6496 1.61855C28.4823 1.27675 28.2183 0.9895 27.8892 0.791139C27.5602 0.592779 27.1799 0.4917 26.7939 0.499983H1.13858C0.928251 0.497343 0.721289 0.551984 0.540648 0.657848C0.360006 0.763712 0.212746 0.916659 0.115199 1.09973C0.0176517 1.2828 -0.0263691 1.48883 -0.0119811 1.69498C0.00240692 1.90112 0.0746412 2.09933 0.19671 2.2676L3.65491 7.32189H27.6796C31.3065 7.32189 31.8969 7.76379 33.3027 9.73855C35.1442 12.0447 37.1264 15.6905 38.9117 15.6905H69.656L74.2247 9.06189C74.3436 8.89271 74.4127 8.69463 74.4245 8.4894C74.4362 8.28417 74.3902 8.07972 74.2914 7.8985C74.1927 7.71728 74.045 7.56631 73.8646 7.46215C73.6842 7.35799 73.478 7.30469 73.2688 7.30808C64.9326 7.32189 35.6925 7.40475 34.7928 7.40475ZM40.5283 57.92L50.1438 43.9724H29.0572L38.6727 57.92C38.778 58.0653 38.9172 58.1839 39.0786 58.2656C39.24 58.3474 39.4189 58.3901 39.6005 58.3901C39.7821 58.3901 39.9611 58.3474 40.1225 58.2656C40.2839 58.1839 40.4231 58.0653 40.5283 57.92ZM54.0097 35.659C52.7586 35.659 50.678 35.59 50.0735 34.4024C49.6428 33.3386 49.0188 32.3607 48.232 31.5162C46.6435 29.5966 44.4786 29.9557 42.8198 29.9557H19.4417L24.1511 36.9709H41.1328C44.6754 36.9709 45.0268 36.6671 46.4326 38.6143C48.0773 40.8928 48.8083 43.0195 50.8045 43.0471L55.9075 35.6314C55.795 35.6452 54.9656 35.659 54.0097 35.659Z" fill="white"/>
<path d="M44.9848 22.5952C44.2947 22.5911 43.6191 22.4009 43.0315 22.0453C42.444 21.6898 41.9672 21.1826 41.6531 20.579C40.1067 18.3557 39.446 17.6652 38.8415 16.8228C38.6779 16.4859 38.4211 16.201 38.1004 16.0007C37.7797 15.8005 37.4081 15.6929 37.0281 15.6904H9.25L13.9031 22.5952H37.9278C41.5547 22.5952 42.1451 23.0233 43.5509 24.998C45.3221 27.2766 47.3746 30.8809 49.2021 30.8809H59.169L64.8905 22.5952H44.9848Z" fill="white"/>
<path d="M25.374 23.2719H25.4583L25.3037 23.2305L25.374 23.2719Z" fill="#0C0C0C"/>
<path d="M90.6304 20.8414L82.6035 38.0619H82.4207L74.4219 20.8414H77.9785L82.5191 30.881L87.0598 20.8967L90.6304 20.8414ZM99.276 38.0619C98.1102 38.0642 96.9566 37.8291 95.888 37.3714C93.7877 36.5048 92.1171 34.8637 91.2349 32.8005C90.7806 31.7404 90.5466 30.6018 90.5466 29.4517C90.5466 28.3015 90.7806 27.1629 91.2349 26.1029C91.673 25.0734 92.3077 24.1359 93.1046 23.341C93.9182 22.5598 94.8713 21.9325 95.9162 21.4905C96.9927 21.0438 98.1495 20.8137 99.3181 20.8137C100.487 20.8137 101.644 21.0438 102.72 21.4905C103.765 21.9325 104.718 22.5598 105.532 23.341C106.329 24.1359 106.963 25.0734 107.401 26.1029C107.856 27.1629 108.09 28.3015 108.09 29.4517C108.09 30.6018 107.856 31.7404 107.401 32.8005C106.519 34.8637 104.849 36.5048 102.748 37.3714C101.654 37.8405 100.47 38.0758 99.276 38.0619ZM99.276 23.8105C98.5317 23.8018 97.7956 23.9625 97.1251 24.28C96.4705 24.5783 95.8791 24.9953 95.382 25.509C94.8745 26.0301 94.4694 26.6387 94.1871 27.3043C93.9015 28.002 93.7582 28.748 93.7653 29.5C93.7688 30.2197 93.912 30.9321 94.1871 31.599C94.4724 32.2674 94.8773 32.8792 95.382 33.4081C95.8824 33.9218 96.4728 34.3428 97.1251 34.651C97.8009 34.9515 98.5342 35.1069 99.276 35.1069C100.018 35.1069 100.751 34.9515 101.427 34.651C102.081 34.3463 102.672 33.9248 103.17 33.4081C103.675 32.8797 104.079 32.2671 104.365 31.599C104.65 30.9339 104.802 30.2214 104.815 29.5C104.81 28.7657 104.662 28.0391 104.379 27.3595C104.097 26.6939 103.691 26.0853 103.184 25.5643C102.689 25.0485 102.097 24.6312 101.441 24.3352C100.775 23.9986 100.039 23.819 99.29 23.8105H99.276ZM127.293 28.6576V30.2595C127.303 30.4343 127.303 30.6095 127.293 30.7843C127.21 31.7997 126.913 32.7871 126.421 33.6843C125.956 34.561 125.327 35.3435 124.566 35.9905C123.78 36.6318 122.892 37.1404 121.937 37.4957C120.933 37.8562 119.871 38.0385 118.802 38.0343C117.637 38.0409 116.484 37.8105 115.414 37.3576C114.369 36.9156 113.416 36.2883 112.603 35.5071C111.801 34.7129 111.162 33.7754 110.719 32.7452C110.25 31.6966 110.01 30.5627 110.016 29.4171C110.012 28.2673 110.251 27.1292 110.719 26.0752C111.162 25.045 111.801 24.1076 112.603 23.3133C113.416 22.5322 114.369 21.9049 115.414 21.4629C116.486 21.0152 117.638 20.7851 118.802 20.7862C120.278 20.7632 121.733 21.1253 123.019 21.8357C124.257 22.499 125.314 23.4466 126.098 24.5976L123.287 26.2548C122.781 25.529 122.125 24.917 121.361 24.4595C120.591 23.9831 119.698 23.7339 118.788 23.7414C118.044 23.7357 117.309 23.8963 116.637 24.211C115.98 24.5125 115.385 24.929 114.88 25.44C114.382 25.9652 113.982 26.573 113.699 27.2352C113.374 27.9475 113.206 28.7194 113.207 29.5C113.201 30.2398 113.349 30.9731 113.643 31.6543C113.926 32.3171 114.325 32.9248 114.824 33.4495C115.33 33.9605 115.925 34.3775 116.581 34.6786C117.253 34.9934 117.987 35.1536 118.732 35.1481C119.866 35.1486 120.972 34.801 121.895 34.1538C122.338 33.8344 122.731 33.4529 123.062 33.0214C123.388 32.5827 123.635 32.0923 123.793 31.5714H117.565V28.6576H127.293ZM133.211 23.7552V28.119H141.379V31.1157H133.211V35.1619H142.419V38.131H129.992V20.8414H142.419V23.7552H133.211Z" fill="white"/>
</svg>
