<svg width="17" height="20" viewBox="0 0 17 20" fill="none" xmlns="http://www.w3.org/2000/svg">
<path d="M8.5 10.917C10.0188 10.917 11.25 9.68578 11.25 8.16699C11.25 6.64821 10.0188 5.41699 8.5 5.41699C6.98122 5.41699 5.75 6.64821 5.75 8.16699C5.75 9.68578 6.98122 10.917 8.5 10.917Z" stroke="#FEEA1E" stroke-width="1.6" stroke-linecap="round" stroke-linejoin="round"/>
<path d="M8.50033 0.833496C6.5554 0.833496 4.69014 1.60611 3.31488 2.98138C1.93961 4.35665 1.16699 6.22191 1.16699 8.16683C1.16699 9.90116 1.53549 11.036 2.54199 12.2918L8.50033 19.1668L14.4587 12.2918C15.4652 11.036 15.8337 9.90116 15.8337 8.16683C15.8337 6.22191 15.061 4.35665 13.6858 2.98138C12.3105 1.60611 10.4452 0.833496 8.50033 0.833496Z" stroke="#FEEA1E" stroke-width="1.6" stroke-linecap="round" stroke-linejoin="round"/>
</svg>
