<svg width="487" height="374" viewBox="0 0 487 374" fill="none" xmlns="http://www.w3.org/2000/svg">
<g clip-path="url(#clip0_150_1966)">
<path d="M429.706 0.5L487 57.7941L57.2941 487.5L0 430.206L429.706 0.5ZM100.265 14.8235C147.819 14.8235 186.206 53.2106 186.206 100.765C186.206 148.319 147.819 186.706 100.265 186.706C52.7106 186.706 14.3235 148.319 14.3235 100.765C14.3235 53.2106 52.7106 14.8235 100.265 14.8235ZM386.735 301.294C434.289 301.294 472.676 339.681 472.676 387.235C472.676 434.789 434.289 473.176 386.735 473.176C339.181 473.176 300.794 434.789 300.794 387.235C300.794 339.681 339.181 301.294 386.735 301.294ZM100.265 72.1176C84.5088 72.1176 71.6176 85.0088 71.6176 100.765C71.6176 116.521 84.5088 129.412 100.265 129.412C116.021 129.412 128.912 116.521 128.912 100.765C128.912 85.0088 116.021 72.1176 100.265 72.1176ZM386.735 358.588C370.979 358.588 358.088 371.479 358.088 387.235C358.088 402.991 370.979 415.882 386.735 415.882C402.491 415.882 415.382 402.991 415.382 387.235C415.382 371.479 402.491 358.588 386.735 358.588Z" fill="#FEF278"/>
</g>
<defs>
<clipPath id="clip0_150_1966">
<rect width="487" height="487" fill="white" transform="translate(0 0.5)"/>
</clipPath>
</defs>
</svg>
