<svg width="97" height="97" viewBox="0 0 97 97" fill="none" xmlns="http://www.w3.org/2000/svg">
<ellipse cx="48.0242" cy="48.6915" rx="48.0008" ry="48" fill="#0C0C0C"/>
<path d="M39.5582 47.5414H39.6187L39.5078 47.5122L39.5582 47.5414Z" fill="#FEEA1E"/>
<path d="M46.3625 36.182C45.8641 36.179 45.3761 36.0416 44.9518 35.7848C44.5274 35.528 44.183 35.1617 43.9562 34.7258C42.8393 33.12 42.3621 32.6213 41.9255 32.0029C41.8047 31.7561 41.614 31.5486 41.3764 31.4053C41.1387 31.2621 40.8641 31.1891 40.5853 31.195H22.0556C21.9037 31.1931 21.7542 31.2326 21.6237 31.3091C21.4933 31.3855 21.3869 31.496 21.3164 31.6282C21.246 31.7604 21.2142 31.9092 21.2246 32.0581C21.235 32.207 21.2871 32.3502 21.3753 32.4717L23.873 36.1221H41.2249C43.8445 36.1221 44.2709 36.4413 45.2863 37.8675C46.6163 39.5332 48.0479 42.1663 49.3374 42.1663H71.5426L74.8424 37.3788C74.9283 37.2566 74.9782 37.1136 74.9867 36.9653C74.9952 36.8171 74.9619 36.6695 74.8906 36.5386C74.8192 36.4077 74.7126 36.2986 74.5823 36.2234C74.452 36.1482 74.3031 36.1097 74.152 36.1121C68.1311 36.1221 47.0123 36.182 46.3625 36.182ZM50.505 72.6663L57.4499 62.5927H42.22L49.1648 72.6663C49.2408 72.7712 49.3413 72.8568 49.4579 72.9159C49.5745 72.975 49.7038 73.0058 49.8349 73.0058C49.9661 73.0058 50.0953 72.975 50.2119 72.9159C50.3285 72.8568 50.429 72.7712 50.505 72.6663ZM60.242 56.5884C59.3384 56.5884 57.8357 56.5386 57.3991 55.6808C57.088 54.9125 56.6373 54.2062 56.069 53.5963C54.9217 52.2099 53.3581 52.4692 52.16 52.4692H35.2751L38.6765 57.5359H50.9416C53.5002 57.5359 53.7541 57.3165 54.7694 58.7228C55.9573 60.3685 56.4853 61.9045 57.9271 61.9244L61.6127 56.5685C61.5315 56.5785 60.9324 56.5884 60.242 56.5884Z" fill="white"/>
<path d="M53.7237 47.1534C53.2253 47.1505 52.7373 47.0131 52.313 46.7563C51.8886 46.4995 51.5442 46.1332 51.3173 45.6972C50.2005 44.0915 49.7233 43.5928 49.2867 42.9844C49.1685 42.741 48.983 42.5353 48.7514 42.3906C48.5198 42.246 48.2514 42.1683 47.9769 42.1665H27.9141L31.2748 47.1534H48.6267C51.2463 47.1534 51.6727 47.4626 52.688 48.8889C53.9674 50.5346 55.4497 53.1377 56.7697 53.1377H63.9683L68.1007 47.1534H53.7237Z" fill="white"/>
<path d="M39.5582 47.6415H39.6187L39.5078 47.6123L39.5582 47.6415Z" fill="#FEEA1E"/>
</svg>
