<svg width="475" height="368" viewBox="0 0 475 368" fill="none" xmlns="http://www.w3.org/2000/svg">
<g clip-path="url(#clip0_150_2002)">
<path d="M464.887 367.605L356.249 258.967C334.819 237.536 302.812 233.361 277.021 246.071L178.125 147.175V89.5625L59.3745 0.5L-0.000488992 59.875L89.062 178.625H146.674L245.571 277.521C232.954 303.313 237.036 335.319 258.466 356.75L367.104 465.388C380.649 478.933 402.543 478.933 415.996 465.388L464.887 416.496C478.339 402.951 478.339 381.057 464.887 367.605ZM307.729 209.24C333.984 209.24 358.662 219.445 377.216 238L395.214 255.998C409.873 249.597 423.789 240.69 435.849 228.63C470.268 194.211 481.957 145.783 471.01 101.809C468.969 93.459 458.486 90.583 452.363 96.7061L383.339 165.729L320.346 155.246L309.863 92.2529L378.886 23.2295C385.009 17.1064 382.041 6.62305 373.598 4.48926C329.624 -6.36523 281.196 5.32422 246.87 39.6504C220.429 66.0908 207.998 100.974 208.647 135.764L284.814 211.931C292.329 210.168 300.122 209.24 307.729 209.24ZM211.337 285.314L158.735 232.712L17.3481 374.191C-5.84521 397.385 -5.84521 434.958 17.3481 458.151C40.5415 481.345 78.1147 481.345 101.308 458.151L215.976 343.483C208.925 325.021 206.791 304.89 211.337 285.314ZM59.3745 438.391C47.1284 438.391 37.1089 428.371 37.1089 416.125C37.1089 403.786 47.0356 393.859 59.3745 393.859C71.7134 393.859 81.6401 403.786 81.6401 416.125C81.6401 428.371 71.7134 438.391 59.3745 438.391Z" fill="#FEF278"/>
</g>
<defs>
<clipPath id="clip0_150_2002">
<rect width="475" height="475" fill="white" transform="translate(0 0.5)"/>
</clipPath>
</defs>
</svg>
