<svg width="180" height="37" viewBox="0 0 180 37" fill="none" xmlns="http://www.w3.org/2000/svg">
<g clip-path="url(#clip0_150_2101)">
<path d="M21.7772 6.32165C21.0031 5.63985 20.1851 5.09857 19.3136 4.70303C18.4421 4.30748 17.5365 4.02123 16.5968 3.84948C15.6523 3.67773 14.7175 3.58925 13.7826 3.58925C12.7018 3.58925 11.6209 3.71416 10.5303 3.96918C9.43966 4.22421 8.46103 4.61975 7.58952 5.16103C6.718 5.7023 6.01202 6.38931 5.47645 7.23245C4.93601 8.07038 4.66823 9.09568 4.66823 10.3031C4.66823 10.9017 4.751 11.4117 4.9068 11.8229C5.06747 12.234 5.25735 12.5827 5.47645 12.869C5.69555 13.1552 5.92438 13.379 6.15808 13.5352C6.39179 13.6965 6.56706 13.8214 6.68879 13.9151C7.25357 14.2326 7.89138 14.4772 8.60223 14.6542C9.31308 14.8311 10.2771 15.0289 11.504 15.2527C14.3474 15.7575 16.6991 16.1947 18.5638 16.559C20.4237 16.9234 21.9233 17.423 23.048 18.0579C24.2214 18.6929 25.1611 19.6245 25.8622 20.8424C26.5584 22.0655 26.909 23.5175 26.909 25.1986C26.909 25.6722 26.8359 26.3905 26.685 27.3377C26.5389 28.2901 26.2079 29.2426 25.6966 30.195C25.2049 31.085 24.6109 31.8917 23.9098 32.6255C23.2135 33.3542 22.3712 33.9735 21.3926 34.4784C20.4091 34.9884 19.2649 35.3735 17.9552 35.6442C16.6455 35.9148 15.1313 36.0501 13.4175 36.0501C13.028 36.0501 12.3756 36.0033 11.47 35.9096C10.5644 35.8159 9.56625 35.6025 8.47564 35.2695C7.38503 34.9364 6.27494 34.4367 5.15024 33.7705C4.02068 33.1044 3.04204 32.1988 2.20948 31.059C1.71773 30.3928 1.31362 29.7162 0.997144 29.0344C0.680671 28.3526 0.349592 27.5979 0.00390625 26.7704L2.72557 25.438C2.87164 25.9481 3.11021 26.6299 3.44129 27.4834C3.77237 28.3422 4.34202 29.1801 5.15024 30.0076C5.95846 30.83 7.06855 31.5534 8.47564 32.1727C9.88273 32.7921 11.7377 33.0991 14.0456 33.0991C15.3455 33.0991 16.6066 32.9378 17.8335 32.6203C19.0604 32.3029 20.1413 31.8188 21.0859 31.1683C22.0304 30.5177 22.7899 29.711 23.3645 28.7377C23.9439 27.7697 24.2262 26.6507 24.2262 25.3808C24.2262 24.2097 23.9974 23.2729 23.53 22.5755C23.0626 21.8781 22.4297 21.3108 21.636 20.884C20.8376 20.4573 19.9125 20.1242 18.8608 19.8848C17.8043 19.6453 16.6893 19.432 15.5159 19.2394L9.85351 18.2401C9.06963 18.0788 8.25167 17.8914 7.40937 17.6676C6.56707 17.449 5.79779 17.1107 5.11129 16.6683C4.89219 16.507 4.6098 16.278 4.26899 15.9761C3.9233 15.6743 3.58735 15.2787 3.25627 14.7843C2.92519 14.2898 2.63793 13.6913 2.39449 12.9731C2.15105 12.2601 2.02446 11.4117 2.02446 10.4281C2.02446 9.06446 2.28251 7.78413 2.7986 6.59749C3.3147 5.41085 4.07423 4.37514 5.07721 3.50077C6.08505 2.6264 7.3266 1.9394 8.80672 1.42935C10.2917 0.919306 12.0104 0.669487 13.9725 0.669487C14.4399 0.669487 15.1459 0.716328 16.1051 0.81001C17.0594 0.903693 18.1159 1.16913 19.2698 1.5959C20.4188 2.02267 21.6068 2.68365 22.8338 3.56843C24.0607 4.45841 25.1611 5.6971 26.1446 7.27929L23.7929 8.89791C23.2281 7.85179 22.5611 6.98783 21.787 6.30603M35.0399 18.2349H37.5035V35.1706H35.0399V18.2505V18.2349ZM72.1646 35.1706L49.9141 5.86885V35.1914H47.6014V1.58549H49.9141L72.1548 31.0485V1.58549H74.4675V35.1862H72.1548L72.1646 35.1706ZM112.946 20.2022C112.882 21.0089 112.756 21.8989 112.561 22.867C112.366 23.835 112.064 24.8655 111.66 25.9585C111.251 27.0514 110.721 28.1236 110.059 29.1697C109.002 30.7883 107.858 32.0634 106.621 33.0003C105.384 33.9371 104.182 34.6293 103.018 35.0717C101.855 35.5141 100.788 35.7899 99.8194 35.9044C98.8505 36.0189 98.1105 36.071 97.5944 36.071C97.2487 36.071 96.7618 36.0449 96.124 35.9981C95.4862 35.9513 94.7705 35.8316 93.9769 35.639C93.1784 35.4464 92.3312 35.155 91.4402 34.7594C90.5443 34.3639 89.6534 33.833 88.7575 33.1668C87.8616 32.5006 87.0096 31.6627 86.2062 30.6426C85.398 29.6277 84.6872 28.4046 84.0737 26.9786C83.6842 26.0626 83.3677 25.1622 83.1389 24.293C82.9052 23.4187 82.7348 22.6119 82.6228 21.8625C82.5108 21.1182 82.4426 20.4364 82.4183 19.8171C82.394 19.1978 82.3793 18.6825 82.3793 18.2713C82.3793 15.3516 82.8127 12.7805 83.6842 10.5634C84.5508 8.34102 85.7047 6.48299 87.141 4.99448C88.5773 3.50598 90.2035 2.38699 92.0293 1.63754C93.8551 0.893284 95.7345 0.518555 97.6723 0.518555C98.2322 0.518555 99.055 0.581009 100.136 0.705919C101.217 0.836033 102.39 1.16913 103.666 1.7052C104.941 2.24127 106.227 3.08441 107.527 4.22941C108.827 5.36921 109.966 6.94099 110.945 8.94475C111.412 9.89719 111.782 10.8392 112.064 11.776C112.347 12.7129 112.561 13.5924 112.707 14.4148C112.858 15.2423 112.946 15.9865 112.985 16.6527C113.024 17.3189 113.038 17.8602 113.038 18.2713C113.038 18.7502 113.009 19.3903 112.946 20.2022ZM109.382 12.2028C108.832 10.5061 108.023 9.00721 106.957 7.70606C105.891 6.40492 104.581 5.36401 103.023 4.58853C101.465 3.81305 99.6734 3.4227 97.6382 3.4227C97.1708 3.4227 96.6206 3.45393 95.9828 3.52159C95.345 3.58405 94.6731 3.72457 93.9622 3.94836C93.2514 4.16696 92.5211 4.48964 91.7762 4.9008C91.0312 5.31717 90.3009 5.85324 89.59 6.51942C89.22 6.86813 88.7818 7.37297 88.2657 8.03916C87.7496 8.70534 87.2579 9.53287 86.7954 10.5165C86.3279 11.5002 85.9287 12.6504 85.6025 13.9672C85.2714 15.2839 85.1059 16.7828 85.1059 18.4639C85.1059 18.9063 85.1497 19.6714 85.2373 20.7487C85.3201 21.8261 85.5635 22.9867 85.953 24.2254C86.3961 25.6514 86.9463 26.8693 87.6085 27.8686C88.2706 28.8678 88.9863 29.7006 89.7605 30.3668C90.5297 31.0329 91.3282 31.5586 92.1462 31.9385C92.969 32.3185 93.7432 32.6047 94.4637 32.7973C95.1843 32.9846 95.8416 33.1044 96.4307 33.1564C97.0199 33.2032 97.4581 33.2293 97.7551 33.2293C100.009 33.2293 101.928 32.7713 103.51 31.8501C105.087 30.9288 106.378 29.7318 107.366 28.2589C108.359 26.786 109.08 25.1153 109.538 23.2625C109.99 21.4045 110.214 19.51 110.214 17.5739C110.214 15.6378 109.937 13.9151 109.387 12.2184M147.928 20.2178C148.415 20.9933 148.79 21.8833 149.048 22.8826C149.306 23.8819 149.433 24.9332 149.433 26.047C149.433 26.3332 149.413 26.7704 149.379 27.3585C149.345 27.9466 149.238 28.5764 149.067 29.2634C148.897 29.9452 148.634 30.653 148.279 31.3816C147.923 32.1155 147.436 32.7609 146.828 33.3334C145.971 34.1609 145.065 34.6761 144.106 34.8791C143.152 35.0873 142.159 35.1914 141.126 35.1914H120.911V1.58549H141.238C142.412 1.58549 143.473 1.87174 144.418 2.43904C145.357 3.01154 146.185 3.91193 146.896 5.15062C147.091 5.49933 147.344 6.09265 147.651 6.93579C147.957 7.77372 148.113 8.79902 148.113 10.0065C148.113 11.1151 147.982 12.0987 147.729 12.9575C147.47 13.811 147.135 14.5449 146.721 15.1486C146.307 15.7523 145.82 16.2363 145.27 16.6007C144.72 16.965 144.165 17.2252 143.6 17.3866C144.554 17.4802 145.392 17.7873 146.112 18.2922C146.833 18.797 147.441 19.4424 147.928 20.223M144.437 13.9255C144.632 13.608 144.846 13.1604 145.08 12.5723C145.314 11.9894 145.43 11.2035 145.43 10.2251C145.43 9.94403 145.401 9.49123 145.338 8.87189C145.28 8.25775 145.075 7.60197 144.734 6.90456C144.442 6.30603 144.101 5.83762 143.726 5.50974C143.351 5.17664 142.938 4.92682 142.499 4.74987C142.061 4.57812 141.599 4.46882 141.126 4.41678C140.649 4.36994 140.162 4.34391 139.676 4.34391H123.492V16.1947H139.31C140.265 16.1947 141.19 16.075 142.081 15.8356C142.972 15.6014 143.76 14.9612 144.447 13.9151M144.501 20.2855C143.975 19.9056 143.405 19.6193 142.796 19.4268C142.183 19.2342 141.56 19.1249 140.927 19.0885C140.289 19.0572 139.68 19.0416 139.091 19.0416H123.492V32.4174H141.18C142.183 32.4174 143.137 32.23 144.043 31.8448C144.948 31.4649 145.669 30.6374 146.209 29.3623C146.506 28.6649 146.687 28.0091 146.76 27.4054C146.833 26.8016 146.872 26.354 146.872 26.0678C146.872 25.7815 146.823 25.2142 146.726 24.3711C146.628 23.528 146.346 22.7056 145.883 21.9093C145.494 21.2119 145.031 20.6706 144.505 20.2855M168.265 21.5658V35.181H165.914V21.5658L153.644 1.58549H156.731L167.063 18.8647L177.063 1.58549H180.004L168.241 21.5762L168.265 21.5658Z" fill="#CECECE"/>
<path d="M41.9301 5.83244C41.9301 9.00202 39.5249 11.5731 36.5598 11.5731C33.5946 11.5731 31.1895 9.00202 31.1895 5.83244C31.1895 2.66285 33.5946 0.0917969 36.5598 0.0917969C39.5249 0.0917969 41.9301 2.66285 41.9301 5.83244Z" fill="#B2F200"/>
</g>
<defs>
<clipPath id="clip0_150_2101">
<rect width="180" height="36" fill="white" transform="translate(0 0.0917969)"/>
</clipPath>
</defs>
</svg>
