<svg width="956" height="391" viewBox="0 0 956 391" fill="none" xmlns="http://www.w3.org/2000/svg">
<g clip-path="url(#clip0_150_1984)">
<path d="M533.531 172.361L505.765 263.997L664.967 178.838L579.807 19.6352L552.041 111.271C487.233 91.6336 417.277 98.5458 357.565 130.487C297.852 162.428 253.274 216.781 233.637 281.59C219.106 329.546 219.644 378.4 232.085 423.19L290.194 392.106C284.065 361.536 285.622 329.921 294.727 300.101C309.455 251.494 342.889 210.729 387.673 186.773C432.458 162.818 484.924 157.633 533.531 172.361ZM723.912 288.076L665.803 319.159C671.469 348.89 670.526 380.62 661.27 411.165C646.542 459.772 613.109 500.537 568.324 524.493C523.54 548.448 471.073 553.632 422.467 538.904L450.233 447.269L291.03 532.428L376.19 691.631L403.956 599.995C468.765 619.632 538.72 612.72 598.433 580.779C658.145 548.838 702.723 494.484 722.361 429.676C736.892 381.72 736.354 332.866 723.912 288.076Z" fill="#FEF278"/>
</g>
<defs>
<clipPath id="clip0_150_1984">
<rect width="766" height="766" fill="white" transform="translate(222.52 -121.974) rotate(16.857)"/>
</clipPath>
</defs>
</svg>
