<svg width="22" height="22" viewBox="0 0 22 22" fill="none" xmlns="http://www.w3.org/2000/svg">
<path d="M11 1.71875C9.16435 1.71875 7.36991 2.26309 5.84362 3.28292C4.31732 4.30276 3.12772 5.75229 2.42525 7.44822C1.72277 9.14415 1.53897 11.0103 1.89709 12.8107C2.25521 14.6111 3.13916 16.2648 4.43717 17.5628C5.73518 18.8608 7.38894 19.7448 9.18932 20.1029C10.9897 20.461 12.8559 20.2772 14.5518 19.5748C16.2477 18.8723 17.6972 17.6827 18.7171 16.1564C19.7369 14.6301 20.2813 12.8357 20.2813 11C20.2785 8.5393 19.2998 6.18016 17.5598 4.44018C15.8198 2.7002 13.4607 1.72148 11 1.71875ZM11 18.2188C9.57227 18.2188 8.1766 17.7954 6.98948 17.0022C5.80236 16.209 4.87712 15.0815 4.33075 13.7625C3.78438 12.4434 3.64142 10.992 3.91996 9.59169C4.1985 8.19139 4.88602 6.90513 5.89558 5.89557C6.90514 4.88601 8.1914 4.19849 9.5917 3.91996C10.992 3.64142 12.4434 3.78437 13.7625 4.33074C15.0816 4.87711 16.209 5.80236 17.0022 6.98948C17.7954 8.17659 18.2188 9.57227 18.2188 11C18.2167 12.9139 17.4555 14.7488 16.1022 16.1022C14.7488 17.4555 12.9139 18.2167 11 18.2188ZM16.8438 11C16.8438 11.2735 16.7351 11.5358 16.5417 11.7292C16.3483 11.9226 16.086 12.0312 15.8125 12.0312H11C10.7265 12.0312 10.4642 11.9226 10.2708 11.7292C10.0774 11.5358 9.96875 11.2735 9.96875 11V6.1875C9.96875 5.914 10.0774 5.65169 10.2708 5.4583C10.4642 5.2649 10.7265 5.15625 11 5.15625C11.2735 5.15625 11.5358 5.2649 11.7292 5.4583C11.9226 5.65169 12.0313 5.914 12.0313 6.1875V9.96875H15.8125C16.086 9.96875 16.3483 10.0774 16.5417 10.2708C16.7351 10.4642 16.8438 10.7265 16.8438 11Z" fill="#CECECE"/>
</svg>
