<svg width="22" height="22" viewBox="0 0 22 22" fill="none" xmlns="http://www.w3.org/2000/svg">
<path d="M19.1099 13.6176L15.0614 11.8035L15.0502 11.7983C14.8401 11.7084 14.6108 11.6723 14.3832 11.6933C14.1555 11.7144 13.9367 11.7918 13.7466 11.9186C13.7242 11.9334 13.7027 11.9495 13.6821 11.9667L11.5904 13.7499C10.2652 13.1063 8.89712 11.7485 8.25345 10.4405L10.0392 8.31698C10.0564 8.2955 10.0727 8.27401 10.0882 8.25081C10.2123 8.06115 10.2876 7.84374 10.3074 7.61794C10.3272 7.39214 10.2909 7.16495 10.2016 6.95659V6.94628L8.38235 2.89089C8.26439 2.61869 8.06157 2.39195 7.80415 2.2445C7.54674 2.09705 7.24854 2.03681 6.95407 2.07276C5.78959 2.22599 4.72071 2.79787 3.94706 3.68159C3.17341 4.56531 2.7479 5.70043 2.75001 6.87495C2.75001 13.6984 8.30157 19.2499 15.125 19.2499C16.2995 19.2521 17.4346 18.8265 18.3184 18.0529C19.2021 17.2792 19.774 16.2104 19.9272 15.0459C19.9632 14.7515 19.9031 14.4534 19.7558 14.196C19.6085 13.9386 19.382 13.7357 19.1099 13.6176ZM15.125 17.8749C12.2086 17.8718 9.41256 16.7118 7.35035 14.6496C5.28814 12.5874 4.12819 9.79135 4.12501 6.87495C4.12177 6.03576 4.42411 5.22408 4.97556 4.59151C5.52701 3.95893 6.28986 3.54871 7.12165 3.43745C7.12131 3.44088 7.12131 3.44433 7.12165 3.44776L8.92634 7.48682L7.15001 9.61292C7.13198 9.63366 7.1156 9.65579 7.10102 9.67909C6.9717 9.87753 6.89583 10.106 6.88078 10.3424C6.86572 10.5788 6.91199 10.8151 7.01509 11.0283C7.79368 12.6207 9.39813 14.2132 11.0077 14.9909C11.2226 15.093 11.4602 15.1377 11.6974 15.1205C11.9347 15.1033 12.1634 15.0249 12.3613 14.8929C12.3833 14.8781 12.4046 14.862 12.4249 14.8448L14.514 13.0624L18.5531 14.8714H18.5625C18.4526 15.7044 18.043 16.4688 17.4103 17.0216C16.7776 17.5744 15.9652 17.8778 15.125 17.8749Z" fill="#CECECE" stroke="#CECECE"/>
</svg>
