<svg width="144" height="58" viewBox="0 0 144 58" fill="none" xmlns="http://www.w3.org/2000/svg">
<g clip-path="url(#clip0_150_2043)">
<path d="M25.374 22.6338H25.4583L25.3037 22.5924L25.374 22.6338Z" fill="#9E9E9E"/>
<path d="M34.7928 6.90475C34.1027 6.90064 33.4271 6.71044 32.8396 6.35489C32.2521 5.99935 31.7752 5.49212 31.4611 4.88855C29.9148 2.66522 29.254 1.97474 28.6496 1.11855C28.4823 0.776749 28.2183 0.4895 27.8892 0.291139C27.5602 0.092779 27.1799 -0.00830039 26.7939 -1.70791e-05H1.13858C0.928251 -0.00265742 0.721289 0.0519844 0.540648 0.157848C0.360006 0.263712 0.212746 0.416659 0.115199 0.599727C0.0176517 0.782795 -0.0263691 0.988829 -0.0119811 1.19498C0.00240692 1.40112 0.0746412 1.59933 0.19671 1.7676L3.65491 6.82189H27.6796C31.3065 6.82189 31.8969 7.26379 33.3027 9.23855C35.1442 11.5447 37.1264 15.1905 38.9117 15.1905H69.656L74.2247 8.56189C74.3436 8.39271 74.4127 8.19463 74.4245 7.9894C74.4362 7.78417 74.3902 7.57972 74.2914 7.3985C74.1927 7.21728 74.045 7.06631 73.8646 6.96215C73.6842 6.85799 73.478 6.80469 73.2688 6.80808C64.9326 6.82189 35.6925 6.90475 34.7928 6.90475ZM40.5283 57.42L50.1438 43.4724H29.0572L38.6727 57.42C38.778 57.5653 38.9172 57.6839 39.0786 57.7656C39.24 57.8474 39.4189 57.8901 39.6005 57.8901C39.7821 57.8901 39.9611 57.8474 40.1225 57.7656C40.2839 57.6839 40.4231 57.5653 40.5283 57.42ZM54.0097 35.159C52.7586 35.159 50.678 35.09 50.0735 33.9024C49.6428 32.8386 49.0188 31.8607 48.232 31.0162C46.6435 29.0966 44.4786 29.4557 42.8198 29.4557H19.4417L24.1511 36.4709H41.1328C44.6754 36.4709 45.0268 36.1671 46.4326 38.1143C48.0773 40.3928 48.8083 42.5195 50.8045 42.5471L55.9075 35.1314C55.795 35.1452 54.9656 35.159 54.0097 35.159Z" fill="#9E9E9E"/>
<path d="M44.9848 22.0952C44.2947 22.0911 43.6191 21.9009 43.0315 21.5453C42.444 21.1898 41.9672 20.6826 41.6531 20.079C40.1067 17.8557 39.446 17.1652 38.8415 16.3228C38.6779 15.9859 38.4211 15.701 38.1004 15.5007C37.7797 15.3005 37.4081 15.1929 37.0281 15.1904H9.25L13.9031 22.0952H37.9278C41.5547 22.0952 42.1451 22.5233 43.5509 24.498C45.3221 26.7766 47.3746 30.3809 49.2021 30.3809H59.169L64.8905 22.0952H44.9848Z" fill="#9E9E9E"/>
<path d="M25.374 22.7719H25.4583L25.3037 22.7305L25.374 22.7719Z" fill="#9E9E9E"/>
<path d="M90.6304 20.3414L82.6035 37.5619H82.4207L74.4219 20.3414H77.9785L82.5191 30.381L87.0598 20.3967L90.6304 20.3414ZM99.276 37.5619C98.1102 37.5642 96.9566 37.3291 95.888 36.8714C93.7877 36.0048 92.1171 34.3637 91.2349 32.3005C90.7806 31.2404 90.5466 30.1018 90.5466 28.9517C90.5466 27.8015 90.7806 26.6629 91.2349 25.6029C91.673 24.5734 92.3077 23.6359 93.1046 22.841C93.9182 22.0598 94.8713 21.4325 95.9162 20.9905C96.9927 20.5438 98.1495 20.3137 99.3181 20.3137C100.487 20.3137 101.644 20.5438 102.72 20.9905C103.765 21.4325 104.718 22.0598 105.532 22.841C106.329 23.6359 106.963 24.5734 107.401 25.6029C107.856 26.6629 108.09 27.8015 108.09 28.9517C108.09 30.1018 107.856 31.2404 107.401 32.3005C106.519 34.3637 104.849 36.0048 102.748 36.8714C101.654 37.3405 100.47 37.5758 99.276 37.5619ZM99.276 23.3105C98.5317 23.3018 97.7956 23.4625 97.1251 23.78C96.4705 24.0783 95.8791 24.4953 95.382 25.009C94.8745 25.5301 94.4694 26.1387 94.1871 26.8043C93.9015 27.502 93.7582 28.248 93.7653 29C93.7688 29.7197 93.912 30.4321 94.1871 31.099C94.4724 31.7674 94.8773 32.3792 95.382 32.9081C95.8824 33.4218 96.4728 33.8428 97.1251 34.151C97.8009 34.4515 98.5342 34.6069 99.276 34.6069C100.018 34.6069 100.751 34.4515 101.427 34.151C102.081 33.8463 102.672 33.4248 103.17 32.9081C103.675 32.3797 104.079 31.7671 104.365 31.099C104.65 30.4339 104.802 29.7214 104.815 29C104.81 28.2657 104.662 27.5391 104.379 26.8595C104.097 26.1939 103.691 25.5853 103.184 25.0643C102.689 24.5485 102.097 24.1312 101.441 23.8352C100.775 23.4986 100.039 23.319 99.29 23.3105H99.276ZM127.293 28.1576V29.7595C127.303 29.9343 127.303 30.1095 127.293 30.2843C127.21 31.2997 126.913 32.2871 126.421 33.1843C125.956 34.061 125.327 34.8435 124.566 35.4905C123.78 36.1318 122.892 36.6404 121.937 36.9957C120.933 37.3562 119.871 37.5385 118.802 37.5343C117.637 37.5409 116.484 37.3105 115.414 36.8576C114.369 36.4156 113.416 35.7883 112.603 35.0071C111.801 34.2129 111.162 33.2754 110.719 32.2452C110.25 31.1966 110.01 30.0627 110.016 28.9171C110.012 27.7673 110.251 26.6292 110.719 25.5752C111.162 24.545 111.801 23.6076 112.603 22.8133C113.416 22.0322 114.369 21.4049 115.414 20.9629C116.486 20.5152 117.638 20.2851 118.802 20.2862C120.278 20.2632 121.733 20.6253 123.019 21.3357C124.257 21.999 125.314 22.9466 126.098 24.0976L123.287 25.7548C122.781 25.029 122.125 24.417 121.361 23.9595C120.591 23.4831 119.698 23.2339 118.788 23.2414C118.044 23.2357 117.309 23.3963 116.637 23.711C115.98 24.0125 115.385 24.429 114.88 24.94C114.382 25.4652 113.982 26.073 113.699 26.7352C113.374 27.4475 113.206 28.2194 113.207 29C113.201 29.7398 113.349 30.4731 113.643 31.1543C113.926 31.8171 114.325 32.4248 114.824 32.9495C115.33 33.4605 115.925 33.8775 116.581 34.1786C117.253 34.4934 117.987 34.6536 118.732 34.6481C119.866 34.6486 120.972 34.301 121.895 33.6538C122.338 33.3344 122.731 32.9529 123.062 32.5214C123.388 32.0827 123.635 31.5923 123.793 31.0714H117.565V28.1576H127.293ZM133.211 23.2552V27.619H141.379V30.6157H133.211V34.6619H142.419V37.631H129.992V20.3414H142.419V23.2552H133.211Z" fill="#9E9E9E"/>
</g>
<defs>
<clipPath id="clip0_150_2043">
<rect width="143.389" height="58" fill="white"/>
</clipPath>
</defs>
</svg>
